# MagicaVoxel @ Ephtracy

# group
o nth floor

# material
mtllib floor_two.mtl
usemtl palette

# normals
vn -1 0 0
vn 1 0 0
vn 0 0 1
vn 0 0 -1
vn 0 -1 0
vn 0 1 0

# texcoords
vt 0.455078 0.5

# verts
v -1.7 1.8 -0.2
v -1.7 1.8 -0.5
v -1.7 1.9 -0.2
v -1.7 1.9 -0.5
v -1.6 1.6 0.7
v -1.6 1.6 -1.6
v -1.6 1.8 -0.2
v -1.6 1.8 -0.5
v -1.6 1.9 -0.2
v -1.6 1.9 -0.5
v -1.6 2.3 -0.2
v -1.6 2.3 -0.5
v -1.6 2.4 0.7
v -1.6 2.4 -1.6
v -1.3 1.8 0.8
v -1.3 1.8 0.7
v -1.3 1.9 0.8
v -1.3 1.9 0.7
v -0.9 1.9 0.7
v -0.9 1.9 0.6
v -0.9 2.3 0.7
v -0.9 2.3 0.6
v -0.8 1.8 0.8
v -0.8 1.8 0.7
v -0.8 1.9 0.8
v -0.8 1.9 0.7
v -0.4 1.6 -1.1
v -0.4 1.6 -1.5
v -0.4 1.7 -1.1
v -0.4 1.7 -1.5
v -0.4 1.9 0.7
v -0.4 1.9 0.6
v -0.4 2.3 0.7
v -0.4 2.3 0.6
v -0.3 1.7 -0.2
v -0.3 1.7 -0.5
v -0.3 1.7 -0.8
v -0.3 1.7 -1
v -0.3 2.3 -0.5
v -0.3 2.3 -0.8
v -0.3 2.4 -0.2
v -0.3 2.4 -1
v -0.2 1.8 -1.6
v -0.2 1.8 -1.7
v -0.2 1.9 -1.6
v -0.2 1.9 -1.7
v 0.0999999 1.9 -1.5
v 0.0999999 1.9 -1.6
v 0.0999999 2.3 -1.5
v 0.0999999 2.3 -1.6
v 0.2 1.7 0.6
v 0.2 1.7 -0.2
v 0.2 1.7 -0.3
v 0.2 1.7 -0.5
v 0.2 1.7 -0.8
v 0.2 1.7 -1.5
v 0.2 2.3 -0.5
v 0.2 2.3 -0.8
v 0.2 2.4 0.6
v 0.2 2.4 -0.2
v 0.2 2.4 -0.3
v 0.2 2.4 -1.5
v 0.6 1.8 -0.1
v 0.6 1.8 -0.2
v 0.6 1.9 -0.1
v 0.6 1.9 -0.2
v 0.9 1.9 -0.2
v 0.9 1.9 -0.3
v 0.9 2.3 -0.2
v 0.9 2.3 -0.3
v 1.2 1.7 -0.3
v 1.2 1.7 -1.5
v 1.2 1.9 -0.4
v 1.2 1.9 -0.7
v 1.2 1.9 -1.1
v 1.2 1.9 -1.4
v 1.2 2.3 -0.4
v 1.2 2.3 -0.7
v 1.2 2.3 -1.1
v 1.2 2.3 -1.4
v 1.2 2.4 -0.3
v 1.2 2.4 -1.5
v -1.5 1.6 -1.1
v -1.5 1.6 -1.5
v -1.5 1.7 0.6
v -1.5 1.7 -1
v -1.5 1.9 -0.2
v -1.5 1.9 -0.5
v -1.5 2.3 -0.2
v -1.5 2.3 -0.5
v -1.5 2.4 0.6
v -1.5 2.4 -1
v -1.5 2.4 -1.1
v -1.5 2.4 -1.5
v -1.3 1.9 0.7
v -1.3 1.9 0.6
v -1.3 2.3 0.7
v -1.3 2.3 0.6
v -0.9 1.8 0.8
v -0.9 1.8 0.7
v -0.9 1.9 0.8
v -0.9 1.9 0.7
v -0.8 1.9 0.7
v -0.8 1.9 0.6
v -0.8 2.3 0.7
v -0.8 2.3 0.6
v -0.4 1.8 0.8
v -0.4 1.8 0.7
v -0.4 1.9 0.8
v -0.4 1.9 0.7
v -0.2 1.7 -0.3
v -0.2 1.7 -0.5
v -0.2 1.7 -0.8
v -0.2 1.7 -1.1
v -0.2 1.9 -1.5
v -0.2 1.9 -1.6
v -0.2 2.3 -0.5
v -0.2 2.3 -0.8
v -0.2 2.3 -1.5
v -0.2 2.3 -1.6
v -0.2 2.4 -0.3
v -0.2 2.4 -1.1
v 0.0999999 1.8 -1.6
v 0.0999999 1.8 -1.7
v 0.0999999 1.9 -1.6
v 0.0999999 1.9 -1.7
v 0.3 1.6 0.7
v 0.3 1.6 -0.2
v 0.3 1.7 -0.3
v 0.3 1.7 -0.5
v 0.3 1.7 -0.8
v 0.3 1.7 -1.5
v 0.3 2.3 -0.5
v 0.3 2.3 -0.8
v 0.3 2.4 0.7
v 0.3 2.4 -0.2
v 0.3 2.4 -0.3
v 0.3 2.4 -1.5
v 0.6 1.9 -0.2
v 0.6 1.9 -0.3
v 0.6 2.3 -0.2
v 0.6 2.3 -0.3
v 0.9 1.8 -0.1
v 0.9 1.8 -0.2
v 0.9 1.9 -0.1
v 0.9 1.9 -0.2
v 1.3 1.6 -0.2
v 1.3 1.6 -1.6
v 1.3 1.8 -0.4
v 1.3 1.8 -0.7
v 1.3 1.8 -1.1
v 1.3 1.8 -1.4
v 1.3 1.9 -0.4
v 1.3 1.9 -0.7
v 1.3 1.9 -1.1
v 1.3 1.9 -1.4
v 1.3 2.3 -0.4
v 1.3 2.3 -0.7
v 1.3 2.3 -1.1
v 1.3 2.3 -1.4
v 1.3 2.4 -0.2
v 1.3 2.4 -1.6
v 1.4 1.8 -0.4
v 1.4 1.8 -0.7
v 1.4 1.8 -1.1
v 1.4 1.8 -1.4
v 1.4 1.9 -0.4
v 1.4 1.9 -0.7
v 1.4 1.9 -1.1
v 1.4 1.9 -1.4
v -1.3 1.8 0.8
v -1.3 1.9 0.8
v -0.9 1.8 0.8
v -0.9 1.9 0.8
v -0.8 1.8 0.8
v -0.8 1.9 0.8
v -0.4 1.8 0.8
v -0.4 1.9 0.8
v -1.6 1.6 0.7
v -1.6 2.4 0.7
v -1.3 1.8 0.7
v -1.3 1.9 0.7
v -1.3 2.3 0.7
v -0.9 1.8 0.7
v -0.9 1.9 0.7
v -0.9 2.3 0.7
v -0.8 1.8 0.7
v -0.8 1.9 0.7
v -0.8 2.3 0.7
v -0.4 1.8 0.7
v -0.4 1.9 0.7
v -0.4 2.3 0.7
v 0.3 1.6 0.7
v 0.3 2.4 0.7
v 0.6 1.8 -0.1
v 0.6 1.9 -0.1
v 0.9 1.8 -0.1
v 0.9 1.9 -0.1
v -1.7 1.8 -0.2
v -1.7 1.9 -0.2
v -1.6 1.8 -0.2
v -1.6 1.9 -0.2
v -0.3 1.7 -0.2
v -0.3 2.4 -0.2
v 0.2 1.7 -0.2
v 0.2 2.4 -0.2
v 0.3 1.6 -0.2
v 0.3 2.4 -0.2
v 0.6 1.8 -0.2
v 0.6 1.9 -0.2
v 0.6 2.3 -0.2
v 0.9 1.8 -0.2
v 0.9 1.9 -0.2
v 0.9 2.3 -0.2
v 1.3 1.6 -0.2
v 1.3 2.4 -0.2
v 1.3 1.8 -0.4
v 1.3 1.9 -0.4
v 1.4 1.8 -0.4
v 1.4 1.9 -0.4
v -1.6 1.9 -0.5
v -1.6 2.3 -0.5
v -1.5 1.9 -0.5
v -1.5 2.3 -0.5
v 1.2 1.9 -0.7
v 1.2 2.3 -0.7
v 1.3 1.9 -0.7
v 1.3 2.3 -0.7
v -0.3 1.7 -0.8
v -0.3 2.3 -0.8
v -0.2 1.7 -0.8
v -0.2 2.3 -0.8
v 0.2 1.7 -0.8
v 0.2 2.3 -0.8
v 0.3 1.7 -0.8
v 0.3 2.3 -0.8
v -1.5 1.7 -1
v -1.5 2.4 -1
v -0.3 1.7 -1
v -0.3 2.4 -1
v 1.3 1.8 -1.1
v 1.3 1.9 -1.1
v 1.4 1.8 -1.1
v 1.4 1.9 -1.1
v 1.2 1.9 -1.4
v 1.2 2.3 -1.4
v 1.3 1.9 -1.4
v 1.3 2.3 -1.4
v -1.5 1.6 -1.5
v -1.5 2.4 -1.5
v -0.4 1.6 -1.5
v -0.4 1.7 -1.5
v -0.2 1.9 -1.5
v -0.2 2.3 -1.5
v 0.0999999 1.9 -1.5
v 0.0999999 2.3 -1.5
v 0.2 1.7 -1.5
v 0.2 2.4 -1.5
v 0.3 1.7 -1.5
v 0.3 2.4 -1.5
v 1.2 1.7 -1.5
v 1.2 2.4 -1.5
v -1.5 1.7 0.6
v -1.5 2.4 0.6
v -1.3 1.9 0.6
v -1.3 2.3 0.6
v -0.9 1.9 0.6
v -0.9 2.3 0.6
v -0.8 1.9 0.6
v -0.8 2.3 0.6
v -0.4 1.9 0.6
v -0.4 2.3 0.6
v 0.2 1.7 0.6
v 0.2 2.4 0.6
v -1.6 1.9 -0.2
v -1.6 2.3 -0.2
v -1.5 1.9 -0.2
v -1.5 2.3 -0.2
v -0.2 1.7 -0.3
v -0.2 2.4 -0.3
v 0.2 1.7 -0.3
v 0.2 2.4 -0.3
v 0.3 1.7 -0.3
v 0.3 2.4 -0.3
v 0.6 1.9 -0.3
v 0.6 2.3 -0.3
v 0.9 1.9 -0.3
v 0.9 2.3 -0.3
v 1.2 1.7 -0.3
v 1.2 2.4 -0.3
v 1.2 1.9 -0.4
v 1.2 2.3 -0.4
v 1.3 1.9 -0.4
v 1.3 2.3 -0.4
v -1.7 1.8 -0.5
v -1.7 1.9 -0.5
v -1.6 1.8 -0.5
v -1.6 1.9 -0.5
v -0.3 1.7 -0.5
v -0.3 2.3 -0.5
v -0.2 1.7 -0.5
v -0.2 2.3 -0.5
v 0.2 1.7 -0.5
v 0.2 2.3 -0.5
v 0.3 1.7 -0.5
v 0.3 2.3 -0.5
v 1.3 1.8 -0.7
v 1.3 1.9 -0.7
v 1.4 1.8 -0.7
v 1.4 1.9 -0.7
v -1.5 1.6 -1.1
v -1.5 2.4 -1.1
v -0.4 1.6 -1.1
v -0.4 1.7 -1.1
v -0.2 1.7 -1.1
v -0.2 2.4 -1.1
v 1.2 1.9 -1.1
v 1.2 2.3 -1.1
v 1.3 1.9 -1.1
v 1.3 2.3 -1.1
v 1.3 1.8 -1.4
v 1.3 1.9 -1.4
v 1.4 1.8 -1.4
v 1.4 1.9 -1.4
v -1.6 1.6 -1.6
v -1.6 2.4 -1.6
v -0.2 1.8 -1.6
v -0.2 1.9 -1.6
v -0.2 2.3 -1.6
v 0.0999999 1.8 -1.6
v 0.0999999 1.9 -1.6
v 0.0999999 2.3 -1.6
v 1.3 1.6 -1.6
v 1.3 2.4 -1.6
v -0.2 1.8 -1.7
v -0.2 1.9 -1.7
v 0.0999999 1.8 -1.7
v 0.0999999 1.9 -1.7
v -1.6 1.6 0.7
v 0.3 1.6 0.7
v 0.3 1.6 -0.2
v 1.3 1.6 -0.2
v -1.5 1.6 -1.1
v -0.4 1.6 -1.1
v -1.5 1.6 -1.5
v -0.4 1.6 -1.5
v -1.6 1.6 -1.6
v 1.3 1.6 -1.6
v -1.3 1.8 0.8
v -0.9 1.8 0.8
v -0.8 1.8 0.8
v -0.4 1.8 0.8
v -1.3 1.8 0.7
v -0.9 1.8 0.7
v -0.8 1.8 0.7
v -0.4 1.8 0.7
v 0.6 1.8 -0.1
v 0.9 1.8 -0.1
v -1.7 1.8 -0.2
v -1.6 1.8 -0.2
v 0.6 1.8 -0.2
v 0.9 1.8 -0.2
v 1.3 1.8 -0.4
v 1.4 1.8 -0.4
v -1.7 1.8 -0.5
v -1.6 1.8 -0.5
v 1.3 1.8 -0.7
v 1.4 1.8 -0.7
v 1.3 1.8 -1.1
v 1.4 1.8 -1.1
v 1.3 1.8 -1.4
v 1.4 1.8 -1.4
v -0.2 1.8 -1.6
v 0.0999999 1.8 -1.6
v -0.2 1.8 -1.7
v 0.0999999 1.8 -1.7
v -1.3 2.3 0.7
v -0.9 2.3 0.7
v -0.8 2.3 0.7
v -0.4 2.3 0.7
v -1.3 2.3 0.6
v -0.9 2.3 0.6
v -0.8 2.3 0.6
v -0.4 2.3 0.6
v -1.6 2.3 -0.2
v -1.5 2.3 -0.2
v 0.6 2.3 -0.2
v 0.9 2.3 -0.2
v 0.6 2.3 -0.3
v 0.9 2.3 -0.3
v 1.2 2.3 -0.4
v 1.3 2.3 -0.4
v -1.6 2.3 -0.5
v -1.5 2.3 -0.5
v -0.3 2.3 -0.5
v -0.2 2.3 -0.5
v 0.2 2.3 -0.5
v 0.3 2.3 -0.5
v 1.2 2.3 -0.7
v 1.3 2.3 -0.7
v -0.3 2.3 -0.8
v -0.2 2.3 -0.8
v 0.2 2.3 -0.8
v 0.3 2.3 -0.8
v 1.2 2.3 -1.1
v 1.3 2.3 -1.1
v 1.2 2.3 -1.4
v 1.3 2.3 -1.4
v -0.2 2.3 -1.5
v 0.0999999 2.3 -1.5
v -0.2 2.3 -1.6
v 0.0999999 2.3 -1.6
v -1.5 1.7 0.6
v 0.2 1.7 0.6
v -0.3 1.7 -0.2
v 0.2 1.7 -0.2
v -0.2 1.7 -0.3
v 0.2 1.7 -0.3
v 0.3 1.7 -0.3
v 1.2 1.7 -0.3
v -0.3 1.7 -0.5
v -0.2 1.7 -0.5
v 0.2 1.7 -0.5
v 0.3 1.7 -0.5
v -0.3 1.7 -0.8
v -0.2 1.7 -0.8
v 0.2 1.7 -0.8
v 0.3 1.7 -0.8
v -1.5 1.7 -1
v -0.3 1.7 -1
v -0.4 1.7 -1.1
v -0.2 1.7 -1.1
v -0.4 1.7 -1.5
v 0.2 1.7 -1.5
v 0.3 1.7 -1.5
v 1.2 1.7 -1.5
v -1.3 1.9 0.8
v -0.9 1.9 0.8
v -0.8 1.9 0.8
v -0.4 1.9 0.8
v -1.3 1.9 0.7
v -0.9 1.9 0.7
v -0.8 1.9 0.7
v -0.4 1.9 0.7
v -1.3 1.9 0.6
v -0.9 1.9 0.6
v -0.8 1.9 0.6
v -0.4 1.9 0.6
v 0.6 1.9 -0.1
v 0.9 1.9 -0.1
v -1.7 1.9 -0.2
v -1.6 1.9 -0.2
v -1.5 1.9 -0.2
v 0.6 1.9 -0.2
v 0.9 1.9 -0.2
v 0.6 1.9 -0.3
v 0.9 1.9 -0.3
v 1.2 1.9 -0.4
v 1.3 1.9 -0.4
v 1.4 1.9 -0.4
v -1.7 1.9 -0.5
v -1.6 1.9 -0.5
v -1.5 1.9 -0.5
v 1.2 1.9 -0.7
v 1.3 1.9 -0.7
v 1.4 1.9 -0.7
v 1.2 1.9 -1.1
v 1.3 1.9 -1.1
v 1.4 1.9 -1.1
v 1.2 1.9 -1.4
v 1.3 1.9 -1.4
v 1.4 1.9 -1.4
v -0.2 1.9 -1.5
v 0.0999999 1.9 -1.5
v -0.2 1.9 -1.6
v 0.0999999 1.9 -1.6
v -0.2 1.9 -1.7
v 0.0999999 1.9 -1.7
v -1.6 2.4 0.7
v 0.3 2.4 0.7
v -1.5 2.4 0.6
v 0.2 2.4 0.6
v -0.3 2.4 -0.2
v 0.2 2.4 -0.2
v 0.3 2.4 -0.2
v 1.3 2.4 -0.2
v -0.2 2.4 -0.3
v 0.2 2.4 -0.3
v 0.3 2.4 -0.3
v 1.2 2.4 -0.3
v -1.5 2.4 -1
v -0.3 2.4 -1
v -1.5 2.4 -1.1
v -0.2 2.4 -1.1
v -1.5 2.4 -1.5
v 0.2 2.4 -1.5
v 0.3 2.4 -1.5
v 1.2 2.4 -1.5
v -1.6 2.4 -1.6
v 1.3 2.4 -1.6

# faces
f 3/1/1 2/1/1 1/1/1
f 4/1/1 2/1/1 3/1/1
f 7/1/1 6/1/1 5/1/1
f 8/1/1 6/1/1 7/1/1
f 9/1/1 7/1/1 5/1/1
f 10/1/1 6/1/1 8/1/1
f 11/1/1 9/1/1 5/1/1
f 12/1/1 6/1/1 10/1/1
f 13/1/1 11/1/1 5/1/1
f 13/1/1 12/1/1 11/1/1
f 14/1/1 6/1/1 12/1/1
f 14/1/1 12/1/1 13/1/1
f 17/1/1 16/1/1 15/1/1
f 18/1/1 16/1/1 17/1/1
f 21/1/1 20/1/1 19/1/1
f 22/1/1 20/1/1 21/1/1
f 25/1/1 24/1/1 23/1/1
f 26/1/1 24/1/1 25/1/1
f 29/1/1 28/1/1 27/1/1
f 30/1/1 28/1/1 29/1/1
f 33/1/1 32/1/1 31/1/1
f 34/1/1 32/1/1 33/1/1
f 39/1/1 36/1/1 35/1/1
f 40/1/1 38/1/1 37/1/1
f 41/1/1 39/1/1 35/1/1
f 41/1/1 40/1/1 39/1/1
f 42/1/1 38/1/1 40/1/1
f 42/1/1 40/1/1 41/1/1
f 45/1/1 44/1/1 43/1/1
f 46/1/1 44/1/1 45/1/1
f 49/1/1 48/1/1 47/1/1
f 50/1/1 48/1/1 49/1/1
f 57/1/1 54/1/1 53/1/1
f 58/1/1 56/1/1 55/1/1
f 59/1/1 52/1/1 51/1/1
f 60/1/1 52/1/1 59/1/1
f 61/1/1 58/1/1 57/1/1
f 61/1/1 57/1/1 53/1/1
f 62/1/1 56/1/1 58/1/1
f 62/1/1 58/1/1 61/1/1
f 65/1/1 64/1/1 63/1/1
f 66/1/1 64/1/1 65/1/1
f 69/1/1 68/1/1 67/1/1
f 70/1/1 68/1/1 69/1/1
f 73/1/1 72/1/1 71/1/1
f 74/1/1 72/1/1 73/1/1
f 75/1/1 72/1/1 74/1/1
f 76/1/1 72/1/1 75/1/1
f 77/1/1 73/1/1 71/1/1
f 78/1/1 75/1/1 74/1/1
f 79/1/1 75/1/1 78/1/1
f 80/1/1 72/1/1 76/1/1
f 81/1/1 79/1/1 78/1/1
f 81/1/1 80/1/1 79/1/1
f 81/1/1 77/1/1 71/1/1
f 81/1/1 78/1/1 77/1/1
f 82/1/1 72/1/1 80/1/1
f 82/1/1 80/1/1 81/1/1
f 85/1/2 86/1/2 87/1/2
f 87/1/2 86/1/2 88/1/2
f 85/1/2 87/1/2 89/1/2
f 88/1/2 86/1/2 90/1/2
f 85/1/2 89/1/2 91/1/2
f 89/1/2 90/1/2 91/1/2
f 90/1/2 86/1/2 92/1/2
f 91/1/2 90/1/2 92/1/2
f 83/1/2 84/1/2 93/1/2
f 93/1/2 84/1/2 94/1/2
f 95/1/2 96/1/2 97/1/2
f 97/1/2 96/1/2 98/1/2
f 99/1/2 100/1/2 101/1/2
f 101/1/2 100/1/2 102/1/2
f 103/1/2 104/1/2 105/1/2
f 105/1/2 104/1/2 106/1/2
f 107/1/2 108/1/2 109/1/2
f 109/1/2 108/1/2 110/1/2
f 111/1/2 112/1/2 117/1/2
f 113/1/2 114/1/2 118/1/2
f 115/1/2 116/1/2 119/1/2
f 119/1/2 116/1/2 120/1/2
f 117/1/2 118/1/2 121/1/2
f 111/1/2 117/1/2 121/1/2
f 118/1/2 114/1/2 122/1/2
f 121/1/2 118/1/2 122/1/2
f 123/1/2 124/1/2 125/1/2
f 125/1/2 124/1/2 126/1/2
f 129/1/2 130/1/2 133/1/2
f 131/1/2 132/1/2 134/1/2
f 127/1/2 128/1/2 135/1/2
f 135/1/2 128/1/2 136/1/2
f 133/1/2 134/1/2 137/1/2
f 129/1/2 133/1/2 137/1/2
f 134/1/2 132/1/2 138/1/2
f 137/1/2 134/1/2 138/1/2
f 139/1/2 140/1/2 141/1/2
f 141/1/2 140/1/2 142/1/2
f 143/1/2 144/1/2 145/1/2
f 145/1/2 144/1/2 146/1/2
f 147/1/2 148/1/2 149/1/2
f 149/1/2 148/1/2 150/1/2
f 150/1/2 148/1/2 151/1/2
f 151/1/2 148/1/2 152/1/2
f 147/1/2 149/1/2 153/1/2
f 150/1/2 151/1/2 154/1/2
f 154/1/2 151/1/2 155/1/2
f 152/1/2 148/1/2 156/1/2
f 147/1/2 153/1/2 157/1/2
f 154/1/2 155/1/2 158/1/2
f 158/1/2 155/1/2 159/1/2
f 156/1/2 148/1/2 160/1/2
f 147/1/2 157/1/2 161/1/2
f 159/1/2 160/1/2 161/1/2
f 158/1/2 159/1/2 161/1/2
f 157/1/2 158/1/2 161/1/2
f 160/1/2 148/1/2 162/1/2
f 161/1/2 160/1/2 162/1/2
f 163/1/2 164/1/2 167/1/2
f 167/1/2 164/1/2 168/1/2
f 165/1/2 166/1/2 169/1/2
f 169/1/2 166/1/2 170/1/2
f 173/1/3 172/1/3 171/1/3
f 174/1/3 172/1/3 173/1/3
f 177/1/3 176/1/3 175/1/3
f 178/1/3 176/1/3 177/1/3
f 181/1/3 180/1/3 179/1/3
f 182/1/3 180/1/3 181/1/3
f 183/1/3 180/1/3 182/1/3
f 184/1/3 181/1/3 179/1/3
f 186/1/3 180/1/3 183/1/3
f 187/1/3 185/1/3 184/1/3
f 187/1/3 186/1/3 185/1/3
f 187/1/3 184/1/3 179/1/3
f 188/1/3 186/1/3 187/1/3
f 189/1/3 180/1/3 186/1/3
f 189/1/3 186/1/3 188/1/3
f 190/1/3 187/1/3 179/1/3
f 192/1/3 180/1/3 189/1/3
f 193/1/3 191/1/3 190/1/3
f 193/1/3 192/1/3 191/1/3
f 193/1/3 190/1/3 179/1/3
f 194/1/3 180/1/3 192/1/3
f 194/1/3 192/1/3 193/1/3
f 197/1/3 196/1/3 195/1/3
f 198/1/3 196/1/3 197/1/3
f 201/1/3 200/1/3 199/1/3
f 202/1/3 200/1/3 201/1/3
f 205/1/3 204/1/3 203/1/3
f 206/1/3 204/1/3 205/1/3
f 209/1/3 208/1/3 207/1/3
f 210/1/3 208/1/3 209/1/3
f 211/1/3 208/1/3 210/1/3
f 212/1/3 209/1/3 207/1/3
f 214/1/3 208/1/3 211/1/3
f 215/1/3 213/1/3 212/1/3
f 215/1/3 214/1/3 213/1/3
f 215/1/3 212/1/3 207/1/3
f 216/1/3 208/1/3 214/1/3
f 216/1/3 214/1/3 215/1/3
f 219/1/3 218/1/3 217/1/3
f 220/1/3 218/1/3 219/1/3
f 223/1/3 222/1/3 221/1/3
f 224/1/3 222/1/3 223/1/3
f 227/1/3 226/1/3 225/1/3
f 228/1/3 226/1/3 227/1/3
f 231/1/3 230/1/3 229/1/3
f 232/1/3 230/1/3 231/1/3
f 235/1/3 234/1/3 233/1/3
f 236/1/3 234/1/3 235/1/3
f 239/1/3 238/1/3 237/1/3
f 240/1/3 238/1/3 239/1/3
f 243/1/3 242/1/3 241/1/3
f 244/1/3 242/1/3 243/1/3
f 247/1/3 246/1/3 245/1/3
f 248/1/3 246/1/3 247/1/3
f 251/1/3 250/1/3 249/1/3
f 252/1/3 250/1/3 251/1/3
f 253/1/3 250/1/3 252/1/3
f 254/1/3 250/1/3 253/1/3
f 255/1/3 253/1/3 252/1/3
f 256/1/3 250/1/3 254/1/3
f 257/1/3 255/1/3 252/1/3
f 257/1/3 256/1/3 255/1/3
f 258/1/3 250/1/3 256/1/3
f 258/1/3 256/1/3 257/1/3
f 261/1/3 260/1/3 259/1/3
f 262/1/3 260/1/3 261/1/3
f 263/1/4 264/1/4 265/1/4
f 265/1/4 264/1/4 266/1/4
f 263/1/4 265/1/4 267/1/4
f 266/1/4 264/1/4 268/1/4
f 263/1/4 267/1/4 269/1/4
f 267/1/4 268/1/4 269/1/4
f 268/1/4 264/1/4 270/1/4
f 269/1/4 268/1/4 270/1/4
f 263/1/4 269/1/4 271/1/4
f 270/1/4 264/1/4 272/1/4
f 263/1/4 271/1/4 273/1/4
f 271/1/4 272/1/4 273/1/4
f 272/1/4 264/1/4 274/1/4
f 273/1/4 272/1/4 274/1/4
f 275/1/4 276/1/4 277/1/4
f 277/1/4 276/1/4 278/1/4
f 279/1/4 280/1/4 281/1/4
f 281/1/4 280/1/4 282/1/4
f 283/1/4 284/1/4 285/1/4
f 285/1/4 284/1/4 286/1/4
f 283/1/4 285/1/4 287/1/4
f 286/1/4 284/1/4 288/1/4
f 283/1/4 287/1/4 289/1/4
f 287/1/4 288/1/4 289/1/4
f 288/1/4 284/1/4 290/1/4
f 289/1/4 288/1/4 290/1/4
f 291/1/4 292/1/4 293/1/4
f 293/1/4 292/1/4 294/1/4
f 295/1/4 296/1/4 297/1/4
f 297/1/4 296/1/4 298/1/4
f 299/1/4 300/1/4 301/1/4
f 301/1/4 300/1/4 302/1/4
f 303/1/4 304/1/4 305/1/4
f 305/1/4 304/1/4 306/1/4
f 307/1/4 308/1/4 309/1/4
f 309/1/4 308/1/4 310/1/4
f 311/1/4 312/1/4 313/1/4
f 313/1/4 312/1/4 314/1/4
f 314/1/4 312/1/4 315/1/4
f 315/1/4 312/1/4 316/1/4
f 317/1/4 318/1/4 319/1/4
f 319/1/4 318/1/4 320/1/4
f 321/1/4 322/1/4 323/1/4
f 323/1/4 322/1/4 324/1/4
f 325/1/4 326/1/4 327/1/4
f 327/1/4 326/1/4 328/1/4
f 328/1/4 326/1/4 329/1/4
f 325/1/4 327/1/4 330/1/4
f 329/1/4 326/1/4 332/1/4
f 330/1/4 331/1/4 333/1/4
f 331/1/4 332/1/4 333/1/4
f 325/1/4 330/1/4 333/1/4
f 332/1/4 326/1/4 334/1/4
f 333/1/4 332/1/4 334/1/4
f 335/1/4 336/1/4 337/1/4
f 337/1/4 336/1/4 338/1/4
f 341/1/5 340/1/5 339/1/5
f 343/1/5 341/1/5 339/1/5
f 343/1/5 342/1/5 341/1/5
f 344/1/5 342/1/5 343/1/5
f 345/1/5 343/1/5 339/1/5
f 346/1/5 342/1/5 344/1/5
f 347/1/5 345/1/5 339/1/5
f 347/1/5 346/1/5 345/1/5
f 348/1/5 342/1/5 346/1/5
f 348/1/5 346/1/5 347/1/5
f 353/1/5 350/1/5 349/1/5
f 354/1/5 350/1/5 353/1/5
f 355/1/5 352/1/5 351/1/5
f 356/1/5 352/1/5 355/1/5
f 361/1/5 358/1/5 357/1/5
f 362/1/5 358/1/5 361/1/5
f 365/1/5 360/1/5 359/1/5
f 366/1/5 360/1/5 365/1/5
f 367/1/5 364/1/5 363/1/5
f 368/1/5 364/1/5 367/1/5
f 371/1/5 370/1/5 369/1/5
f 372/1/5 370/1/5 371/1/5
f 375/1/5 374/1/5 373/1/5
f 376/1/5 374/1/5 375/1/5
f 381/1/5 378/1/5 377/1/5
f 382/1/5 378/1/5 381/1/5
f 383/1/5 380/1/5 379/1/5
f 384/1/5 380/1/5 383/1/5
f 389/1/5 388/1/5 387/1/5
f 390/1/5 388/1/5 389/1/5
f 393/1/5 386/1/5 385/1/5
f 394/1/5 386/1/5 393/1/5
f 399/1/5 392/1/5 391/1/5
f 400/1/5 392/1/5 399/1/5
f 401/1/5 396/1/5 395/1/5
f 402/1/5 396/1/5 401/1/5
f 403/1/5 398/1/5 397/1/5
f 404/1/5 398/1/5 403/1/5
f 407/1/5 406/1/5 405/1/5
f 408/1/5 406/1/5 407/1/5
f 411/1/5 410/1/5 409/1/5
f 412/1/5 410/1/5 411/1/5
f 413/1/6 414/1/6 415/1/6
f 415/1/6 414/1/6 416/1/6
f 413/1/6 415/1/6 421/1/6
f 417/1/6 418/1/6 422/1/6
f 422/1/6 418/1/6 423/1/6
f 419/1/6 420/1/6 424/1/6
f 422/1/6 423/1/6 425/1/6
f 423/1/6 424/1/6 425/1/6
f 413/1/6 421/1/6 425/1/6
f 421/1/6 422/1/6 425/1/6
f 425/1/6 424/1/6 426/1/6
f 426/1/6 424/1/6 427/1/6
f 424/1/6 420/1/6 428/1/6
f 427/1/6 424/1/6 428/1/6
f 413/1/6 425/1/6 429/1/6
f 429/1/6 425/1/6 430/1/6
f 426/1/6 427/1/6 432/1/6
f 431/1/6 432/1/6 433/1/6
f 432/1/6 427/1/6 434/1/6
f 433/1/6 432/1/6 434/1/6
f 428/1/6 420/1/6 435/1/6
f 435/1/6 420/1/6 436/1/6
f 437/1/6 438/1/6 441/1/6
f 441/1/6 438/1/6 442/1/6
f 439/1/6 440/1/6 443/1/6
f 443/1/6 440/1/6 444/1/6
f 441/1/6 442/1/6 445/1/6
f 445/1/6 442/1/6 446/1/6
f 443/1/6 444/1/6 447/1/6
f 447/1/6 444/1/6 448/1/6
f 449/1/6 450/1/6 454/1/6
f 454/1/6 450/1/6 455/1/6
f 454/1/6 455/1/6 456/1/6
f 456/1/6 455/1/6 457/1/6
f 452/1/6 453/1/6 461/1/6
f 451/1/6 452/1/6 461/1/6
f 461/1/6 453/1/6 462/1/6
f 462/1/6 453/1/6 463/1/6
f 459/1/6 460/1/6 464/1/6
f 458/1/6 459/1/6 464/1/6
f 464/1/6 460/1/6 465/1/6
f 465/1/6 460/1/6 466/1/6
f 467/1/6 468/1/6 470/1/6
f 468/1/6 469/1/6 470/1/6
f 470/1/6 469/1/6 471/1/6
f 471/1/6 469/1/6 472/1/6
f 473/1/6 474/1/6 475/1/6
f 475/1/6 474/1/6 476/1/6
f 475/1/6 476/1/6 477/1/6
f 477/1/6 476/1/6 478/1/6
f 479/1/6 480/1/6 481/1/6
f 481/1/6 480/1/6 482/1/6
f 482/1/6 480/1/6 484/1/6
f 484/1/6 480/1/6 485/1/6
f 483/1/6 484/1/6 487/1/6
f 485/1/6 486/1/6 487/1/6
f 484/1/6 485/1/6 487/1/6
f 487/1/6 486/1/6 488/1/6
f 488/1/6 486/1/6 489/1/6
f 489/1/6 486/1/6 490/1/6
f 479/1/6 481/1/6 491/1/6
f 483/1/6 487/1/6 492/1/6
f 479/1/6 491/1/6 493/1/6
f 491/1/6 492/1/6 493/1/6
f 492/1/6 487/1/6 494/1/6
f 493/1/6 492/1/6 494/1/6
f 479/1/6 493/1/6 495/1/6
f 488/1/6 489/1/6 496/1/6
f 496/1/6 489/1/6 497/1/6
f 490/1/6 486/1/6 498/1/6
f 496/1/6 497/1/6 499/1/6
f 497/1/6 498/1/6 499/1/6
f 479/1/6 495/1/6 499/1/6
f 495/1/6 496/1/6 499/1/6
f 498/1/6 486/1/6 500/1/6
f 499/1/6 498/1/6 500/1/6
