{"accessors":[{"name":"1st floor-Mesh_0_positions","componentType":5126,"count":456,"min":[-1.7000000476837158,0.800000011920929,-1.600000023841858],"max":[1.2999999523162842,1.600000023841858,0.800000011920929],"type":"VEC3","bufferView":0,"byteOffset":0},{"name":"1st floor-Mesh_0_normals","componentType":5126,"count":456,"min":[-1,-1,-1],"max":[1,1,1],"type":"VEC3","bufferView":1,"byteOffset":0},{"name":"1st floor-Mesh_0_texcoords","componentType":5126,"count":456,"min":[0.45117199420928955,0.5],"max":[0.45117199420928955,0.5],"type":"VEC2","bufferView":2,"byteOffset":0},{"name":"1st floor-Mesh_0_indices","componentType":5123,"count":960,"min":[0],"max":[455],"type":"SCALAR","bufferView":3,"byteOffset":0}],"asset":{"generator":"obj2gltf","version":"2.0"},"buffers":[{"name":"floor_one","byteLength":17772,"uri":"data:application/octet-stream;base64,"}],"bufferViews":[{"name":"bufferView_0","buffer":0,"byteLength":5472,"byteOffset":0,"byteStride":12,"target":34962},{"name":"bufferView_1","buffer":0,"byteLength":5472,"byteOffset":5472,"byteStride":12,"target":34962},{"name":"bufferView_2","buffer":0,"byteLength":3648,"byteOffset":10944,"byteStride":8,"target":34962},{"name":"bufferView_3","buffer":0,"byteLength":1920,"byteOffset":14592,"target":34963},{"buffer":0,"byteOffset":16512,"byteLength":1260}],"images":[{"name":"floor_one","mimeType":"image/png","bufferView":4}],"materials":[{"name":"palette","pbrMetallicRoughness":{"baseColorTexture":{"index":0},"baseColorFactor":[1,1,1,1],"metallicFactor":0,"roughnessFactor":1},"emissiveFactor":[0,0,0],"alphaMode":"OPAQUE","doubleSided":false}],"meshes":[{"name":"1st floor-Mesh","primitives":[{"attributes":{"POSITION":0,"NORMAL":1,"TEXCOORD_0":2},"indices":3,"material":0,"mode":4}]}],"nodes":[{"name":"1st floor","mesh":0}],"samplers":[{"wrapS":10497,"wrapT":10497}],"scene":0,"scenes":[{"nodes":[0]}],"textures":[{"name":"floor_one","sampler":0,"source":0}]}