{"accessors":[{"name":"nth floor-Mesh_0_positions","componentType":5126,"count":500,"min":[-1.7000000476837158,1.600000023841858,-1.7000000476837158],"max":[1.399999976158142,2.4000000953674316,0.800000011920929],"type":"VEC3","bufferView":0,"byteOffset":0},{"name":"nth floor-Mesh_0_normals","componentType":5126,"count":500,"min":[-1,-1,-1],"max":[1,1,1],"type":"VEC3","bufferView":1,"byteOffset":0},{"name":"nth floor-Mesh_0_texcoords","componentType":5126,"count":500,"min":[0.45507800579071045,0.5],"max":[0.45507800579071045,0.5],"type":"VEC2","bufferView":2,"byteOffset":0},{"name":"nth floor-Mesh_0_indices","componentType":5123,"count":1080,"min":[0],"max":[499],"type":"SCALAR","bufferView":3,"byteOffset":0}],"asset":{"generator":"obj2gltf","version":"2.0"},"buffers":[{"name":"floor_two","byteLength":19420,"uri":"data:application/octet-stream;base64,"}],"bufferViews":[{"name":"bufferView_0","buffer":0,"byteLength":6000,"byteOffset":0,"byteStride":12,"target":34962},{"name":"bufferView_1","buffer":0,"byteLength":6000,"byteOffset":6000,"byteStride":12,"target":34962},{"name":"bufferView_2","buffer":0,"byteLength":4000,"byteOffset":12000,"byteStride":8,"target":34962},{"name":"bufferView_3","buffer":0,"byteLength":2160,"byteOffset":16000,"target":34963},{"buffer":0,"byteOffset":18160,"byteLength":1260}],"images":[{"name":"floor_two","mimeType":"image/png","bufferView":4}],"materials":[{"name":"palette","pbrMetallicRoughness":{"baseColorTexture":{"index":0},"baseColorFactor":[1,1,1,1],"metallicFactor":0,"roughnessFactor":1},"emissiveFactor":[0,0,0],"alphaMode":"OPAQUE","doubleSided":false}],"meshes":[{"name":"nth floor-Mesh","primitives":[{"attributes":{"POSITION":0,"NORMAL":1,"TEXCOORD_0":2},"indices":3,"material":0,"mode":4}]}],"nodes":[{"name":"nth floor","mesh":0}],"samplers":[{"wrapS":10497,"wrapT":10497}],"scene":0,"scenes":[{"nodes":[0]}],"textures":[{"name":"floor_two","sampler":0,"source":0}]}