{
  "accessors": [
    {
      "name": "ground-Mesh_0_positions",
      "componentType": 5126,
      "count": 105,
      "min": [-1.7000000476837158, 0, -2.0999999046325684],
      "max": [1.5, 0.800000011920929, 1.100000023841858],
      "type": "VEC3",
      "bufferView": 0,
      "byteOffset": 0
    },
    {
      "name": "ground-Mesh_0_normals",
      "componentType": 5126,
      "count": 105,
      "min": [-1, -1, -1],
      "max": [1, 1, 1],
      "type": "VEC3",
      "bufferView": 1,
      "byteOffset": 0
    },
    {
      "name": "ground-Mesh_0_texcoords",
      "componentType": 5126,
      "count": 105,
      "min": [0.44726601243019104, 0.5],
      "max": [0.44726601243019104, 0.5],
      "type": "VEC2",
      "bufferView": 2,
      "byteOffset": 0
    },
    {
      "name": "ground-Mesh_0_indices",
      "componentType": 5123,
      "count": 198,
      "min": [0],
      "max": [104],
      "type": "SCALAR",
      "bufferView": 3,
      "byteOffset": 0
    }
  ],
  "asset": { "generator": "obj2gltf", "version": "2.0" },
  "buffers": [
    {
      "name": "ground",
      "byteLength": 5016,
      "uri": "data:application/octet-stream;base64,"
    }
  ],
  "bufferViews": [
    {
      "name": "bufferView_0",
      "buffer": 0,
      "byteLength": 1260,
      "byteOffset": 0,
      "byteStride": 12,
      "target": 34962
    },
    {
      "name": "bufferView_1",
      "buffer": 0,
      "byteLength": 1260,
      "byteOffset": 1260,
      "byteStride": 12,
      "target": 34962
    },
    {
      "name": "bufferView_2",
      "buffer": 0,
      "byteLength": 840,
      "byteOffset": 2520,
      "byteStride": 8,
      "target": 34962
    },
    {
      "name": "bufferView_3",
      "buffer": 0,
      "byteLength": 396,
      "byteOffset": 3360,
      "target": 34963
    },
    { "buffer": 0, "byteOffset": 3756, "byteLength": 1260 }
  ],
  "images": [{ "name": "ground", "mimeType": "image/png", "bufferView": 4 }],
  "materials": [
    {
      "name": "palette",
      "pbrMetallicRoughness": {
        "baseColorTexture": { "index": 0 },
        "baseColorFactor": [1, 1, 1, 1],
        "metallicFactor": 0,
        "roughnessFactor": 1
      },
      "emissiveFactor": [0, 0, 0],
      "alphaMode": "OPAQUE",
      "doubleSided": false
    }
  ],
  "meshes": [
    {
      "name": "ground-Mesh",
      "primitives": [
        {
          "attributes": { "POSITION": 0, "NORMAL": 1, "TEXCOORD_0": 2 },
          "indices": 3,
          "material": 0,
          "mode": 4
        }
      ]
    }
  ],
  "nodes": [{ "name": "ground", "mesh": 0 }],
  "samplers": [{ "wrapS": 10497, "wrapT": 10497 }],
  "scene": 0,
  "scenes": [{ "nodes": [0] }],
  "textures": [{ "name": "ground", "sampler": 0, "source": 0 }]
}
