{
  "accessors": [
    {
      "name": "roof-Mesh_0_positions",
      "componentType": 5126,
      "count": 108,
      "min": [-1.7000000476837158, 2.4000000953674316, -1.7000000476837158],
      "max": [1.399999976158142, 2.700000047683716, 0.800000011920929],
      "type": "VEC3",
      "bufferView": 0,
      "byteOffset": 0
    },
    {
      "name": "roof-Mesh_0_normals",
      "componentType": 5126,
      "count": 108,
      "min": [-1, -1, -1],
      "max": [1, 1, 1],
      "type": "VEC3",
      "bufferView": 1,
      "byteOffset": 0
    },
    {
      "name": "roof-Mesh_0_texcoords",
      "componentType": 5126,
      "count": 108,
      "min": [0.45898398756980896, 0.5],
      "max": [0.45898398756980896, 0.5],
      "type": "VEC2",
      "bufferView": 2,
      "byteOffset": 0
    },
    {
      "name": "roof-Mesh_0_indices",
      "componentType": 5123,
      "count": 204,
      "min": [0],
      "max": [107],
      "type": "SCALAR",
      "bufferView": 3,
      "byteOffset": 0
    }
  ],
  "asset": { "generator": "obj2gltf", "version": "2.0" },
  "buffers": [
    {
      "name": "roof",
      "byteLength": 5124,
      "uri": "data:application/octet-stream;base64,"
    }
  ],
  "bufferViews": [
    {
      "name": "bufferView_0",
      "buffer": 0,
      "byteLength": 1296,
      "byteOffset": 0,
      "byteStride": 12,
      "target": 34962
    },
    {
      "name": "bufferView_1",
      "buffer": 0,
      "byteLength": 1296,
      "byteOffset": 1296,
      "byteStride": 12,
      "target": 34962
    },
    {
      "name": "bufferView_2",
      "buffer": 0,
      "byteLength": 864,
      "byteOffset": 2592,
      "byteStride": 8,
      "target": 34962
    },
    {
      "name": "bufferView_3",
      "buffer": 0,
      "byteLength": 408,
      "byteOffset": 3456,
      "target": 34963
    },
    { "buffer": 0, "byteOffset": 3864, "byteLength": 1260 }
  ],
  "images": [{ "name": "roof", "mimeType": "image/png", "bufferView": 4 }],
  "materials": [
    {
      "name": "palette",
      "pbrMetallicRoughness": {
        "baseColorTexture": { "index": 0 },
        "baseColorFactor": [1, 1, 1, 1],
        "metallicFactor": 0,
        "roughnessFactor": 1
      },
      "emissiveFactor": [0, 0, 0],
      "alphaMode": "OPAQUE",
      "doubleSided": false
    }
  ],
  "meshes": [
    {
      "name": "roof-Mesh",
      "primitives": [
        {
          "attributes": { "POSITION": 0, "NORMAL": 1, "TEXCOORD_0": 2 },
          "indices": 3,
          "material": 0,
          "mode": 4
        }
      ]
    }
  ],
  "nodes": [{ "name": "roof", "mesh": 0 }],
  "samplers": [{ "wrapS": 10497, "wrapT": 10497 }],
  "scene": 0,
  "scenes": [{ "nodes": [0] }],
  "textures": [{ "name": "roof", "sampler": 0, "source": 0 }]
}
