# MagicaVoxel @ Ephtracy

# group
o 1st floor

# material
mtllib house.vox-3-1st floor.mtl
usemtl palette

# normals
vn -1 0 0
vn 1 0 0
vn 0 0 1
vn 0 0 -1
vn 0 -1 0
vn 0 1 0

# texcoords
vt 0.451172 0.5

# verts
v -1.7 1 -0.2
v -1.7 1 -0.5
v -1.7 1.1 -0.2
v -1.7 1.1 -0.5
v -1.6 0.8 0.7
v -1.6 0.8 -1.6
v -1.6 1 -0.2
v -1.6 1 -0.5
v -1.6 1.1 -0.2
v -1.6 1.1 -0.5
v -1.6 1.5 -0.2
v -1.6 1.5 -0.5
v -1.6 1.6 0.7
v -1.6 1.6 -1.6
v -1.3 1 0.8
v -1.3 1 0.7
v -1.3 1.1 0.8
v -1.3 1.1 0.7
v -1.1 0.9 -1.1
v -1.1 0.9 -1.5
v -1.1 1 -1.1
v -1.1 1 -1.5
v -1 1 -1.1
v -1 1 -1.5
v -1 1.1 0.7
v -1 1.1 0.6
v -1 1.1 -1.1
v -1 1.1 -1.5
v -1 1.5 0.7
v -1 1.5 0.6
v -0.9 1 0.8
v -0.9 1 0.7
v -0.9 1.1 0.8
v -0.9 1.1 0.7
v -0.9 1.1 -1.1
v -0.9 1.1 -1.5
v -0.9 1.2 -1.1
v -0.9 1.2 -1.5
v -0.8 1.2 -1.1
v -0.8 1.2 -1.5
v -0.8 1.3 -1.1
v -0.8 1.3 -1.5
v -0.7 1.3 -1.1
v -0.7 1.3 -1.5
v -0.7 1.4 -1.1
v -0.7 1.4 -1.5
v -0.6 1.4 -1.1
v -0.6 1.4 -1.5
v -0.6 1.5 -1.1
v -0.6 1.5 -1.5
v -0.5 1.5 -1.1
v -0.5 1.5 -1.5
v -0.5 1.6 -1.1
v -0.5 1.6 -1.5
v -0.4 1.1 0.7
v -0.4 1.1 0.6
v -0.4 1.5 0.7
v -0.4 1.5 0.6
v -0.3 1 0.8
v -0.3 1 0.7
v -0.3 1.1 0.8
v -0.3 1.1 0.7
v 0 1.1 0.7
v 0 1.1 0.6
v 0 1.5 0.7
v 0 1.5 0.6
v 0.2 0.9 0.6
v 0.2 0.9 0.4
v 0.2 0.9 0.1
v 0.2 0.9 -0.5
v 0.2 0.9 -0.8
v 0.2 0.9 -1.1
v 0.2 1.5 0.4
v 0.2 1.5 0.1
v 0.2 1.5 -0.5
v 0.2 1.5 -0.8
v 0.2 1.6 0.6
v 0.2 1.6 -1.1
v 0.6 1 -0.1
v 0.6 1 -0.2
v 0.6 1.1 -0.1
v 0.6 1.1 -0.2
v 0.9 1.1 -0.2
v 0.9 1.1 -0.3
v 0.9 1.5 -0.2
v 0.9 1.5 -0.3
v 1.2 0.9 -0.3
v 1.2 0.9 -1.5
v 1.2 1.6 -0.3
v 1.2 1.6 -1.5
v -1.5 0.9 0.6
v -1.5 0.9 -1.5
v -1.5 1.1 -0.2
v -1.5 1.1 -0.5
v -1.5 1.5 -0.2
v -1.5 1.5 -0.5
v -1.5 1.6 0.6
v -1.5 1.6 -1.5
v -1.3 1.1 0.7
v -1.3 1.1 0.6
v -1.3 1.5 0.7
v -1.3 1.5 0.6
v -1 1 0.8
v -1 1 0.7
v -1 1.1 0.8
v -1 1.1 0.7
v -0.9 1.1 0.7
v -0.9 1.1 0.6
v -0.9 1.5 0.7
v -0.9 1.5 0.6
v -0.4 1 0.8
v -0.4 1 0.7
v -0.4 1.1 0.8
v -0.4 1.1 0.7
v -0.3 1.1 0.7
v -0.3 1.1 0.6
v -0.3 1.5 0.7
v -0.3 1.5 0.6
v 0 1 0.8
v 0 1 0.7
v 0 1.1 0.8
v 0 1.1 0.7
v 0.3 0.8 0.7
v 0.3 0.8 0.4
v 0.3 0.8 0.1
v 0.3 0.8 -0.2
v 0.3 0.9 0.4
v 0.3 0.9 0.1
v 0.3 0.9 -0.3
v 0.3 0.9 -0.5
v 0.3 0.9 -0.8
v 0.3 0.9 -1.5
v 0.3 1.5 0.4
v 0.3 1.5 0.1
v 0.3 1.5 -0.5
v 0.3 1.5 -0.8
v 0.3 1.6 0.7
v 0.3 1.6 -0.2
v 0.3 1.6 -0.3
v 0.3 1.6 -1.5
v 0.4 0.8 0.4
v 0.4 0.8 0.1
v 0.4 0.9 0.4
v 0.4 0.9 0.1
v 0.6 1.1 -0.2
v 0.6 1.1 -0.3
v 0.6 1.5 -0.2
v 0.6 1.5 -0.3
v 0.9 1 -0.1
v 0.9 1 -0.2
v 0.9 1.1 -0.1
v 0.9 1.1 -0.2
v 1.3 0.8 -0.2
v 1.3 0.8 -1.6
v 1.3 1.6 -0.2
v 1.3 1.6 -1.6
v -1.3 1 0.8
v -1.3 1.1 0.8
v -1 1 0.8
v -1 1.1 0.8
v -0.9 1 0.8
v -0.9 1.1 0.8
v -0.4 1 0.8
v -0.4 1.1 0.8
v -0.3 1 0.8
v -0.3 1.1 0.8
v 0 1 0.8
v 0 1.1 0.8
v -1.6 0.8 0.7
v -1.6 1.6 0.7
v -1.3 1 0.7
v -1.3 1.1 0.7
v -1.3 1.5 0.7
v -1 1 0.7
v -1 1.1 0.7
v -1 1.5 0.7
v -0.9 1 0.7
v -0.9 1.1 0.7
v -0.9 1.5 0.7
v -0.4 1 0.7
v -0.4 1.1 0.7
v -0.4 1.5 0.7
v -0.3 1 0.7
v -0.3 1.1 0.7
v -0.3 1.5 0.7
v 0 1 0.7
v 0 1.1 0.7
v 0 1.5 0.7
v 0.3 0.8 0.7
v 0.3 1.6 0.7
v 0.3 0.8 0.4
v 0.3 0.9 0.4
v 0.4 0.8 0.4
v 0.4 0.9 0.4
v 0.2 0.9 0.1
v 0.2 1.5 0.1
v 0.3 0.9 0.1
v 0.3 1.5 0.1
v 0.6 1 -0.1
v 0.6 1.1 -0.1
v 0.9 1 -0.1
v 0.9 1.1 -0.1
v -1.7 1 -0.2
v -1.7 1.1 -0.2
v -1.6 1 -0.2
v -1.6 1.1 -0.2
v 0.3 0.8 -0.2
v 0.3 1.6 -0.2
v 0.6 1 -0.2
v 0.6 1.1 -0.2
v 0.6 1.5 -0.2
v 0.9 1 -0.2
v 0.9 1.1 -0.2
v 0.9 1.5 -0.2
v 1.3 0.8 -0.2
v 1.3 1.6 -0.2
v -1.6 1.1 -0.5
v -1.6 1.5 -0.5
v -1.5 1.1 -0.5
v -1.5 1.5 -0.5
v 0.2 0.9 -0.8
v 0.2 1.5 -0.8
v 0.3 0.9 -0.8
v 0.3 1.5 -0.8
v -1.1 0.9 -1.1
v -1.1 1 -1.1
v -1 1 -1.1
v -1 1.1 -1.1
v -0.9 1.1 -1.1
v -0.9 1.2 -1.1
v -0.8 1.2 -1.1
v -0.8 1.3 -1.1
v -0.7 1.3 -1.1
v -0.7 1.4 -1.1
v -0.6 1.4 -1.1
v -0.6 1.5 -1.1
v -0.5 1.5 -1.1
v -0.5 1.6 -1.1
v 0.2 0.9 -1.1
v 0.2 1.6 -1.1
v -1.5 0.9 -1.5
v -1.5 1.6 -1.5
v -1.1 0.9 -1.5
v -1.1 1 -1.5
v -1 1 -1.5
v -1 1.1 -1.5
v -0.9 1.1 -1.5
v -0.9 1.2 -1.5
v -0.8 1.2 -1.5
v -0.8 1.3 -1.5
v -0.7 1.3 -1.5
v -0.7 1.4 -1.5
v -0.6 1.4 -1.5
v -0.6 1.5 -1.5
v -0.5 1.5 -1.5
v -0.5 1.6 -1.5
v 0.3 0.9 -1.5
v 0.3 1.6 -1.5
v 1.2 0.9 -1.5
v 1.2 1.6 -1.5
v -1.5 0.9 0.6
v -1.5 1.6 0.6
v -1.3 1.1 0.6
v -1.3 1.5 0.6
v -1 1.1 0.6
v -1 1.5 0.6
v -0.9 1.1 0.6
v -0.9 1.5 0.6
v -0.4 1.1 0.6
v -0.4 1.5 0.6
v -0.3 1.1 0.6
v -0.3 1.5 0.6
v 0 1.1 0.6
v 0 1.5 0.6
v 0.2 0.9 0.6
v 0.2 1.6 0.6
v 0.2 0.9 0.4
v 0.2 1.5 0.4
v 0.3 0.9 0.4
v 0.3 1.5 0.4
v 0.3 0.8 0.1
v 0.3 0.9 0.1
v 0.4 0.8 0.1
v 0.4 0.9 0.1
v -1.6 1.1 -0.2
v -1.6 1.5 -0.2
v -1.5 1.1 -0.2
v -1.5 1.5 -0.2
v 0.3 0.9 -0.3
v 0.3 1.6 -0.3
v 0.6 1.1 -0.3
v 0.6 1.5 -0.3
v 0.9 1.1 -0.3
v 0.9 1.5 -0.3
v 1.2 0.9 -0.3
v 1.2 1.6 -0.3
v -1.7 1 -0.5
v -1.7 1.1 -0.5
v -1.6 1 -0.5
v -1.6 1.1 -0.5
v 0.2 0.9 -0.5
v 0.2 1.5 -0.5
v 0.3 0.9 -0.5
v 0.3 1.5 -0.5
v -1.6 0.8 -1.6
v -1.6 1.6 -1.6
v 1.3 0.8 -1.6
v 1.3 1.6 -1.6
v -1.6 0.8 0.7
v 0.3 0.8 0.7
v 0.3 0.8 0.4
v 0.4 0.8 0.4
v 0.3 0.8 0.1
v 0.4 0.8 0.1
v 0.3 0.8 -0.2
v 1.3 0.8 -0.2
v -1.6 0.8 -1.6
v 1.3 0.8 -1.6
v -1.3 1 0.8
v -1 1 0.8
v -0.9 1 0.8
v -0.4 1 0.8
v -0.3 1 0.8
v 0 1 0.8
v -1.3 1 0.7
v -1 1 0.7
v -0.9 1 0.7
v -0.4 1 0.7
v -0.3 1 0.7
v 0 1 0.7
v 0.6 1 -0.1
v 0.9 1 -0.1
v -1.7 1 -0.2
v -1.6 1 -0.2
v 0.6 1 -0.2
v 0.9 1 -0.2
v -1.7 1 -0.5
v -1.6 1 -0.5
v -1.3 1.5 0.7
v -1 1.5 0.7
v -0.9 1.5 0.7
v -0.4 1.5 0.7
v -0.3 1.5 0.7
v 0 1.5 0.7
v -1.3 1.5 0.6
v -1 1.5 0.6
v -0.9 1.5 0.6
v -0.4 1.5 0.6
v -0.3 1.5 0.6
v 0 1.5 0.6
v 0.2 1.5 0.4
v 0.3 1.5 0.4
v 0.2 1.5 0.1
v 0.3 1.5 0.1
v -1.6 1.5 -0.2
v -1.5 1.5 -0.2
v 0.6 1.5 -0.2
v 0.9 1.5 -0.2
v 0.6 1.5 -0.3
v 0.9 1.5 -0.3
v -1.6 1.5 -0.5
v -1.5 1.5 -0.5
v 0.2 1.5 -0.5
v 0.3 1.5 -0.5
v 0.2 1.5 -0.8
v 0.3 1.5 -0.8
v -1.5 0.9 0.6
v 0.2 0.9 0.6
v 0.2 0.9 0.4
v 0.3 0.9 0.4
v 0.4 0.9 0.4
v 0.2 0.9 0.1
v 0.3 0.9 0.1
v 0.4 0.9 0.1
v 0.3 0.9 -0.3
v 1.2 0.9 -0.3
v 0.2 0.9 -0.5
v 0.3 0.9 -0.5
v 0.2 0.9 -0.8
v 0.3 0.9 -0.8
v -1.1 0.9 -1.1
v 0.2 0.9 -1.1
v -1.5 0.9 -1.5
v -1.1 0.9 -1.5
v 0.3 0.9 -1.5
v 1.2 0.9 -1.5
v -1.1 1 -1.1
v -1 1 -1.1
v -1.1 1 -1.5
v -1 1 -1.5
v -1.3 1.1 0.8
v -1 1.1 0.8
v -0.9 1.1 0.8
v -0.4 1.1 0.8
v -0.3 1.1 0.8
v 0 1.1 0.8
v -1.3 1.1 0.7
v -1 1.1 0.7
v -0.9 1.1 0.7
v -0.4 1.1 0.7
v -0.3 1.1 0.7
v 0 1.1 0.7
v -1.3 1.1 0.6
v -1 1.1 0.6
v -0.9 1.1 0.6
v -0.4 1.1 0.6
v -0.3 1.1 0.6
v 0 1.1 0.6
v 0.6 1.1 -0.1
v 0.9 1.1 -0.1
v -1.7 1.1 -0.2
v -1.6 1.1 -0.2
v -1.5 1.1 -0.2
v 0.6 1.1 -0.2
v 0.9 1.1 -0.2
v 0.6 1.1 -0.3
v 0.9 1.1 -0.3
v -1.7 1.1 -0.5
v -1.6 1.1 -0.5
v -1.5 1.1 -0.5
v -1 1.1 -1.1
v -0.9 1.1 -1.1
v -1 1.1 -1.5
v -0.9 1.1 -1.5
v -0.9 1.2 -1.1
v -0.8 1.2 -1.1
v -0.9 1.2 -1.5
v -0.8 1.2 -1.5
v -0.8 1.3 -1.1
v -0.7 1.3 -1.1
v -0.8 1.3 -1.5
v -0.7 1.3 -1.5
v -0.7 1.4 -1.1
v -0.6 1.4 -1.1
v -0.7 1.4 -1.5
v -0.6 1.4 -1.5
v -0.6 1.5 -1.1
v -0.5 1.5 -1.1
v -0.6 1.5 -1.5
v -0.5 1.5 -1.5
v -1.6 1.6 0.7
v 0.3 1.6 0.7
v -1.5 1.6 0.6
v 0.2 1.6 0.6
v 0.3 1.6 -0.2
v 1.3 1.6 -0.2
v 0.3 1.6 -0.3
v 1.2 1.6 -0.3
v -0.5 1.6 -1.1
v 0.2 1.6 -1.1
v -1.5 1.6 -1.5
v -0.5 1.6 -1.5
v 0.3 1.6 -1.5
v 1.2 1.6 -1.5
v -1.6 1.6 -1.6
v 1.3 1.6 -1.6

# faces
f 3/1/1 2/1/1 1/1/1
f 4/1/1 2/1/1 3/1/1
f 7/1/1 6/1/1 5/1/1
f 8/1/1 6/1/1 7/1/1
f 9/1/1 7/1/1 5/1/1
f 10/1/1 6/1/1 8/1/1
f 11/1/1 9/1/1 5/1/1
f 12/1/1 6/1/1 10/1/1
f 13/1/1 11/1/1 5/1/1
f 13/1/1 12/1/1 11/1/1
f 14/1/1 6/1/1 12/1/1
f 14/1/1 12/1/1 13/1/1
f 17/1/1 16/1/1 15/1/1
f 18/1/1 16/1/1 17/1/1
f 21/1/1 20/1/1 19/1/1
f 22/1/1 20/1/1 21/1/1
f 27/1/1 24/1/1 23/1/1
f 28/1/1 24/1/1 27/1/1
f 29/1/1 26/1/1 25/1/1
f 30/1/1 26/1/1 29/1/1
f 33/1/1 32/1/1 31/1/1
f 34/1/1 32/1/1 33/1/1
f 37/1/1 36/1/1 35/1/1
f 38/1/1 36/1/1 37/1/1
f 41/1/1 40/1/1 39/1/1
f 42/1/1 40/1/1 41/1/1
f 45/1/1 44/1/1 43/1/1
f 46/1/1 44/1/1 45/1/1
f 49/1/1 48/1/1 47/1/1
f 50/1/1 48/1/1 49/1/1
f 53/1/1 52/1/1 51/1/1
f 54/1/1 52/1/1 53/1/1
f 57/1/1 56/1/1 55/1/1
f 58/1/1 56/1/1 57/1/1
f 61/1/1 60/1/1 59/1/1
f 62/1/1 60/1/1 61/1/1
f 65/1/1 64/1/1 63/1/1
f 66/1/1 64/1/1 65/1/1
f 73/1/1 68/1/1 67/1/1
f 74/1/1 70/1/1 69/1/1
f 75/1/1 70/1/1 74/1/1
f 76/1/1 72/1/1 71/1/1
f 77/1/1 75/1/1 74/1/1
f 77/1/1 76/1/1 75/1/1
f 77/1/1 73/1/1 67/1/1
f 77/1/1 74/1/1 73/1/1
f 78/1/1 72/1/1 76/1/1
f 78/1/1 76/1/1 77/1/1
f 81/1/1 80/1/1 79/1/1
f 82/1/1 80/1/1 81/1/1
f 85/1/1 84/1/1 83/1/1
f 86/1/1 84/1/1 85/1/1
f 89/1/1 88/1/1 87/1/1
f 90/1/1 88/1/1 89/1/1
f 91/1/2 92/1/2 93/1/2
f 93/1/2 92/1/2 94/1/2
f 91/1/2 93/1/2 95/1/2
f 94/1/2 92/1/2 96/1/2
f 91/1/2 95/1/2 97/1/2
f 95/1/2 96/1/2 97/1/2
f 96/1/2 92/1/2 98/1/2
f 97/1/2 96/1/2 98/1/2
f 99/1/2 100/1/2 101/1/2
f 101/1/2 100/1/2 102/1/2
f 103/1/2 104/1/2 105/1/2
f 105/1/2 104/1/2 106/1/2
f 107/1/2 108/1/2 109/1/2
f 109/1/2 108/1/2 110/1/2
f 111/1/2 112/1/2 113/1/2
f 113/1/2 112/1/2 114/1/2
f 115/1/2 116/1/2 117/1/2
f 117/1/2 116/1/2 118/1/2
f 119/1/2 120/1/2 121/1/2
f 121/1/2 120/1/2 122/1/2
f 123/1/2 124/1/2 127/1/2
f 125/1/2 126/1/2 128/1/2
f 123/1/2 127/1/2 133/1/2
f 128/1/2 126/1/2 134/1/2
f 129/1/2 130/1/2 135/1/2
f 131/1/2 132/1/2 136/1/2
f 123/1/2 133/1/2 137/1/2
f 133/1/2 134/1/2 137/1/2
f 134/1/2 126/1/2 138/1/2
f 137/1/2 134/1/2 138/1/2
f 129/1/2 135/1/2 139/1/2
f 135/1/2 136/1/2 139/1/2
f 136/1/2 132/1/2 140/1/2
f 139/1/2 136/1/2 140/1/2
f 141/1/2 142/1/2 143/1/2
f 143/1/2 142/1/2 144/1/2
f 145/1/2 146/1/2 147/1/2
f 147/1/2 146/1/2 148/1/2
f 149/1/2 150/1/2 151/1/2
f 151/1/2 150/1/2 152/1/2
f 153/1/2 154/1/2 155/1/2
f 155/1/2 154/1/2 156/1/2
f 159/1/3 158/1/3 157/1/3
f 160/1/3 158/1/3 159/1/3
f 163/1/3 162/1/3 161/1/3
f 164/1/3 162/1/3 163/1/3
f 167/1/3 166/1/3 165/1/3
f 168/1/3 166/1/3 167/1/3
f 171/1/3 170/1/3 169/1/3
f 172/1/3 170/1/3 171/1/3
f 173/1/3 170/1/3 172/1/3
f 174/1/3 171/1/3 169/1/3
f 176/1/3 170/1/3 173/1/3
f 177/1/3 175/1/3 174/1/3
f 177/1/3 176/1/3 175/1/3
f 177/1/3 174/1/3 169/1/3
f 178/1/3 176/1/3 177/1/3
f 179/1/3 170/1/3 176/1/3
f 179/1/3 176/1/3 178/1/3
f 180/1/3 177/1/3 169/1/3
f 182/1/3 170/1/3 179/1/3
f 183/1/3 181/1/3 180/1/3
f 183/1/3 182/1/3 181/1/3
f 183/1/3 180/1/3 169/1/3
f 184/1/3 182/1/3 183/1/3
f 185/1/3 170/1/3 182/1/3
f 185/1/3 182/1/3 184/1/3
f 186/1/3 183/1/3 169/1/3
f 188/1/3 170/1/3 185/1/3
f 189/1/3 187/1/3 186/1/3
f 189/1/3 188/1/3 187/1/3
f 189/1/3 186/1/3 169/1/3
f 190/1/3 170/1/3 188/1/3
f 190/1/3 188/1/3 189/1/3
f 193/1/3 192/1/3 191/1/3
f 194/1/3 192/1/3 193/1/3
f 197/1/3 196/1/3 195/1/3
f 198/1/3 196/1/3 197/1/3
f 201/1/3 200/1/3 199/1/3
f 202/1/3 200/1/3 201/1/3
f 205/1/3 204/1/3 203/1/3
f 206/1/3 204/1/3 205/1/3
f 209/1/3 208/1/3 207/1/3
f 210/1/3 208/1/3 209/1/3
f 211/1/3 208/1/3 210/1/3
f 212/1/3 209/1/3 207/1/3
f 214/1/3 208/1/3 211/1/3
f 215/1/3 213/1/3 212/1/3
f 215/1/3 214/1/3 213/1/3
f 215/1/3 212/1/3 207/1/3
f 216/1/3 208/1/3 214/1/3
f 216/1/3 214/1/3 215/1/3
f 219/1/3 218/1/3 217/1/3
f 220/1/3 218/1/3 219/1/3
f 223/1/3 222/1/3 221/1/3
f 224/1/3 222/1/3 223/1/3
f 227/1/3 226/1/3 225/1/3
f 229/1/3 228/1/3 227/1/3
f 231/1/3 230/1/3 229/1/3
f 233/1/3 232/1/3 231/1/3
f 235/1/3 234/1/3 233/1/3
f 237/1/3 236/1/3 235/1/3
f 239/1/3 227/1/3 225/1/3
f 239/1/3 238/1/3 237/1/3
f 239/1/3 237/1/3 235/1/3
f 239/1/3 235/1/3 233/1/3
f 239/1/3 233/1/3 231/1/3
f 239/1/3 231/1/3 229/1/3
f 239/1/3 229/1/3 227/1/3
f 240/1/3 238/1/3 239/1/3
f 243/1/3 242/1/3 241/1/3
f 244/1/3 242/1/3 243/1/3
f 245/1/3 242/1/3 244/1/3
f 246/1/3 242/1/3 245/1/3
f 247/1/3 242/1/3 246/1/3
f 248/1/3 242/1/3 247/1/3
f 249/1/3 242/1/3 248/1/3
f 250/1/3 242/1/3 249/1/3
f 251/1/3 242/1/3 250/1/3
f 252/1/3 242/1/3 251/1/3
f 253/1/3 242/1/3 252/1/3
f 254/1/3 242/1/3 253/1/3
f 255/1/3 242/1/3 254/1/3
f 256/1/3 242/1/3 255/1/3
f 259/1/3 258/1/3 257/1/3
f 260/1/3 258/1/3 259/1/3
f 261/1/4 262/1/4 263/1/4
f 263/1/4 262/1/4 264/1/4
f 261/1/4 263/1/4 265/1/4
f 264/1/4 262/1/4 266/1/4
f 261/1/4 265/1/4 267/1/4
f 265/1/4 266/1/4 267/1/4
f 266/1/4 262/1/4 268/1/4
f 267/1/4 266/1/4 268/1/4
f 261/1/4 267/1/4 269/1/4
f 268/1/4 262/1/4 270/1/4
f 261/1/4 269/1/4 271/1/4
f 269/1/4 270/1/4 271/1/4
f 270/1/4 262/1/4 272/1/4
f 271/1/4 270/1/4 272/1/4
f 261/1/4 271/1/4 273/1/4
f 272/1/4 262/1/4 274/1/4
f 261/1/4 273/1/4 275/1/4
f 273/1/4 274/1/4 275/1/4
f 274/1/4 262/1/4 276/1/4
f 275/1/4 274/1/4 276/1/4
f 277/1/4 278/1/4 279/1/4
f 279/1/4 278/1/4 280/1/4
f 281/1/4 282/1/4 283/1/4
f 283/1/4 282/1/4 284/1/4
f 285/1/4 286/1/4 287/1/4
f 287/1/4 286/1/4 288/1/4
f 289/1/4 290/1/4 291/1/4
f 291/1/4 290/1/4 292/1/4
f 289/1/4 291/1/4 293/1/4
f 292/1/4 290/1/4 294/1/4
f 289/1/4 293/1/4 295/1/4
f 293/1/4 294/1/4 295/1/4
f 294/1/4 290/1/4 296/1/4
f 295/1/4 294/1/4 296/1/4
f 297/1/4 298/1/4 299/1/4
f 299/1/4 298/1/4 300/1/4
f 301/1/4 302/1/4 303/1/4
f 303/1/4 302/1/4 304/1/4
f 305/1/4 306/1/4 307/1/4
f 307/1/4 306/1/4 308/1/4
f 311/1/5 310/1/5 309/1/5
f 313/1/5 311/1/5 309/1/5
f 313/1/5 312/1/5 311/1/5
f 314/1/5 312/1/5 313/1/5
f 315/1/5 313/1/5 309/1/5
f 317/1/5 315/1/5 309/1/5
f 317/1/5 316/1/5 315/1/5
f 318/1/5 316/1/5 317/1/5
f 325/1/5 320/1/5 319/1/5
f 326/1/5 320/1/5 325/1/5
f 327/1/5 322/1/5 321/1/5
f 328/1/5 322/1/5 327/1/5
f 329/1/5 324/1/5 323/1/5
f 330/1/5 324/1/5 329/1/5
f 335/1/5 332/1/5 331/1/5
f 336/1/5 332/1/5 335/1/5
f 337/1/5 334/1/5 333/1/5
f 338/1/5 334/1/5 337/1/5
f 345/1/5 340/1/5 339/1/5
f 346/1/5 340/1/5 345/1/5
f 347/1/5 342/1/5 341/1/5
f 348/1/5 342/1/5 347/1/5
f 349/1/5 344/1/5 343/1/5
f 350/1/5 344/1/5 349/1/5
f 353/1/5 352/1/5 351/1/5
f 354/1/5 352/1/5 353/1/5
f 359/1/5 358/1/5 357/1/5
f 360/1/5 358/1/5 359/1/5
f 361/1/5 356/1/5 355/1/5
f 362/1/5 356/1/5 361/1/5
f 365/1/5 364/1/5 363/1/5
f 366/1/5 364/1/5 365/1/5
f 367/1/6 368/1/6 369/1/6
f 367/1/6 369/1/6 372/1/6
f 370/1/6 371/1/6 372/1/6
f 369/1/6 370/1/6 372/1/6
f 372/1/6 371/1/6 373/1/6
f 373/1/6 371/1/6 374/1/6
f 367/1/6 372/1/6 377/1/6
f 375/1/6 376/1/6 378/1/6
f 367/1/6 377/1/6 379/1/6
f 377/1/6 378/1/6 379/1/6
f 378/1/6 376/1/6 380/1/6
f 379/1/6 378/1/6 380/1/6
f 367/1/6 379/1/6 381/1/6
f 381/1/6 379/1/6 382/1/6
f 367/1/6 381/1/6 383/1/6
f 383/1/6 381/1/6 384/1/6
f 380/1/6 376/1/6 385/1/6
f 385/1/6 376/1/6 386/1/6
f 387/1/6 388/1/6 389/1/6
f 389/1/6 388/1/6 390/1/6
f 391/1/6 392/1/6 397/1/6
f 397/1/6 392/1/6 398/1/6
f 393/1/6 394/1/6 399/1/6
f 399/1/6 394/1/6 400/1/6
f 395/1/6 396/1/6 401/1/6
f 401/1/6 396/1/6 402/1/6
f 397/1/6 398/1/6 403/1/6
f 403/1/6 398/1/6 404/1/6
f 399/1/6 400/1/6 405/1/6
f 405/1/6 400/1/6 406/1/6
f 401/1/6 402/1/6 407/1/6
f 407/1/6 402/1/6 408/1/6
f 409/1/6 410/1/6 414/1/6
f 414/1/6 410/1/6 415/1/6
f 414/1/6 415/1/6 416/1/6
f 416/1/6 415/1/6 417/1/6
f 412/1/6 413/1/6 418/1/6
f 411/1/6 412/1/6 418/1/6
f 418/1/6 413/1/6 419/1/6
f 419/1/6 413/1/6 420/1/6
f 421/1/6 422/1/6 423/1/6
f 423/1/6 422/1/6 424/1/6
f 425/1/6 426/1/6 427/1/6
f 427/1/6 426/1/6 428/1/6
f 429/1/6 430/1/6 431/1/6
f 431/1/6 430/1/6 432/1/6
f 433/1/6 434/1/6 435/1/6
f 435/1/6 434/1/6 436/1/6
f 437/1/6 438/1/6 439/1/6
f 439/1/6 438/1/6 440/1/6
f 441/1/6 442/1/6 443/1/6
f 443/1/6 442/1/6 444/1/6
f 444/1/6 442/1/6 445/1/6
f 444/1/6 445/1/6 447/1/6
f 445/1/6 446/1/6 447/1/6
f 447/1/6 446/1/6 448/1/6
f 444/1/6 447/1/6 450/1/6
f 441/1/6 443/1/6 451/1/6
f 449/1/6 450/1/6 452/1/6
f 450/1/6 447/1/6 453/1/6
f 452/1/6 450/1/6 453/1/6
f 448/1/6 446/1/6 454/1/6
f 441/1/6 451/1/6 455/1/6
f 453/1/6 454/1/6 455/1/6
f 452/1/6 453/1/6 455/1/6
f 451/1/6 452/1/6 455/1/6
f 454/1/6 446/1/6 456/1/6
f 455/1/6 454/1/6 456/1/6
